<?xml version="1.0" standalone="no"?>
<!DOCTYPE svg PUBLIC "-//W3C//DTD SVG 20010904//EN"
 "http://www.w3.org/TR/2001/REC-SVG-20010904/DTD/svg10.dtd">
<svg version="1.0" xmlns="http://www.w3.org/2000/svg"
 width="1366.000000pt" height="1366.000000pt" viewBox="0 0 1366.000000 1366.000000"
 preserveAspectRatio="xMidYMid meet">
<metadata>
Created by potrace 1.11, written by Peter Selinger 2001-2013
</metadata>
<g transform="translate(0.000000,1366.000000) scale(0.100000,-0.100000)"
fill="#000000" stroke="none">
<path d="M3 12948 c3 -392 10 -744 15 -783 6 -38 13 -122 17 -186 7 -114 7
-116 -15 -122 l-22 -6 5 -1003 c4 -814 8 -1033 20 -1163 21 -208 21 -198 -3
-192 -29 8 -26 -28 5 -55 32 -28 32 -42 0 -36 l-25 5 0 -392 0 -392 51 -7 c57
-8 86 5 115 49 21 32 21 130 2 202 -18 64 -6 74 57 43 23 -11 47 -20 53 -20 7
0 13 -7 13 -15 4 -49 4 -50 -20 -47 -22 3 -23 2 -16 -44 3 -26 9 -52 12 -57 3
-4 2 -28 -2 -53 -5 -33 -17 -55 -46 -86 -21 -23 -39 -44 -39 -48 0 -4 16 -28
36 -54 l36 -48 23 22 c28 26 68 24 73 -4 3 -13 -7 -29 -26 -45 -31 -26 -31
-27 -18 -71 7 -25 18 -58 24 -74 16 -38 32 -146 32 -224 0 -75 -20 -118 -81
-181 -33 -33 -112 -57 -142 -44 -65 28 -123 59 -130 68 -4 5 -5 -188 -2 -430
7 -466 7 -560 3 -640 l-3 -50 45 -22 c37 -18 52 -20 84 -13 50 11 57 19 63 74
3 25 10 46 14 46 13 0 11 20 -4 34 -9 9 -14 51 -16 132 -1 77 -7 126 -15 139
-7 11 -16 63 -20 116 l-6 96 26 12 c15 7 31 8 35 4 5 -5 13 -69 19 -143 6 -74
15 -185 20 -246 17 -185 14 -231 -15 -259 -13 -14 -33 -25 -43 -25 -46 0 -31
-32 26 -56 47 -19 52 -18 52 15 0 41 20 91 36 91 8 0 14 -9 14 -19 0 -11 5
-23 10 -26 6 -3 10 -15 10 -26 0 -11 5 -29 11 -40 8 -15 14 -18 24 -9 21 18
25 67 15 200 -5 69 -14 186 -19 260 -6 74 -13 150 -16 168 -7 37 10 43 50 16
24 -16 28 -35 40 -209 7 -109 24 -283 30 -319 11 -56 -11 -122 -53 -156 l-36
-29 65 -31 c72 -34 99 -38 99 -14 0 11 6 15 20 11 36 -9 41 20 30 200 -5 92
-15 230 -21 306 -6 76 -9 140 -7 143 3 3 17 -1 31 -7 28 -13 26 -2 47 -234 34
-395 33 -422 -10 -457 -11 -9 -20 -20 -20 -26 0 -5 70 -44 155 -86 85 -42 155
-81 155 -85 0 -12 -26 -21 -62 -21 -35 0 -85 21 -145 62 -23 15 -48 28 -56 28
-8 0 -20 6 -26 14 -7 8 -35 22 -64 31 -29 9 -61 25 -72 35 -11 10 -40 25 -65
33 -63 22 -360 174 -385 197 -12 11 -29 20 -38 20 -16 0 -17 -215 -17 -3345
l0 -3345 4694 0 4694 0 5 23 c3 12 16 85 28 162 l23 140 352 708 353 709 173
120 c95 66 177 122 184 125 6 2 107 -25 223 -61 l213 -65 146 -140 c81 -76
159 -152 174 -168 16 -17 78 -148 158 -338 72 -170 187 -429 255 -575 l124
-265 32 -188 32 -187 775 0 c647 0 779 2 805 14 18 8 74 27 125 42 l92 28 0
6788 0 6788 -4670 0 c-4144 0 -4670 -2 -4670 -15 0 -8 -4 -15 -10 -15 -5 0
-10 7 -10 15 0 13 -41 15 -309 15 -344 0 -321 5 -321 -70 0 -49 40 -118 87
-150 52 -35 77 -22 145 79 31 47 66 88 78 93 45 17 109 -40 149 -135 36 -84
31 -100 -56 -186 -43 -42 -94 -96 -113 -121 -19 -25 -37 -47 -40 -50 -3 -3
-20 -26 -37 -52 -40 -56 -44 -111 -12 -168 19 -33 71 -70 100 -70 6 0 25 11
43 25 73 55 172 21 198 -69 6 -23 15 -46 19 -51 13 -18 33 -179 25 -208 -3
-15 -17 -33 -31 -39 -31 -14 -65 7 -100 63 -14 22 -38 44 -53 50 -15 6 -40 23
-57 39 -29 27 -32 28 -87 17 -102 -18 -167 20 -251 146 -21 33 -45 55 -74 68
-52 23 -53 23 -53 0 0 -24 -25 -34 -50 -21 -10 6 -46 10 -80 10 -59 0 -63 2
-112 48 -28 26 -74 71 -101 100 -28 29 -59 52 -70 52 -45 0 4 -147 82 -250 15
-19 36 -52 46 -73 33 -63 113 -137 185 -170 189 -85 256 -118 341 -165 19 -11
69 -31 110 -45 40 -15 112 -41 159 -58 47 -17 117 -42 155 -55 39 -14 79 -32
90 -42 29 -24 145 -183 145 -197 0 -7 7 -15 15 -19 8 -3 15 -9 15 -14 0 -5 20
-40 45 -78 38 -57 45 -76 43 -109 -3 -38 -5 -40 -38 -43 -27 -2 -58 10 -140
56 -58 32 -150 82 -205 111 -55 30 -104 57 -110 61 -22 17 -269 140 -281 140
-7 0 -34 11 -61 24 -83 42 -178 84 -205 91 -20 5 -29 2 -37 -13 -13 -24 -13
-164 -1 -237 12 -73 37 -208 55 -300 9 -44 23 -116 30 -160 7 -44 19 -111 25
-149 7 -38 10 -121 8 -185 -3 -95 -8 -124 -26 -158 -35 -67 -58 -83 -117 -83
-54 0 -97 18 -185 78 -66 45 -210 188 -210 209 0 9 -25 41 -87 113 -18 21 -33
40 -33 44 0 14 46 4 70 -14 36 -28 104 -27 124 2 25 36 20 199 -13 398 -6 37
-15 109 -21 160 -24 215 -56 363 -87 401 -7 8 -13 19 -13 23 0 5 -13 25 -29
45 -38 48 -122 92 -196 103 -217 32 -235 30 -235 -27 0 -30 26 -131 50 -190
43 -109 52 -145 41 -177 -6 -17 -18 -39 -26 -48 -14 -16 -12 -22 20 -70 33
-49 36 -58 33 -119 -3 -59 -6 -67 -29 -80 -24 -13 -30 -13 -65 3 -90 42 -147
107 -178 204 -14 43 -16 86 -14 235 l2 182 -34 75 c-18 41 -46 87 -62 103 -25
24 -36 27 -96 27 -76 0 -85 6 -147 85 -22 28 -45 56 -52 63 -8 8 -26 30 -41
50 -15 21 -33 43 -39 50 -7 7 -13 17 -13 22 0 5 -6 15 -14 22 -29 30 -116 212
-116 244 0 59 52 68 142 23 94 -46 227 -103 308 -130 47 -16 151 -52 231 -79
80 -27 183 -68 229 -91 199 -98 300 -141 317 -135 21 8 16 120 -8 187 -22 61
-81 139 -104 139 -19 0 -58 49 -105 134 -37 67 -88 126 -110 126 -4 0 -15 -11
-24 -25 -12 -19 -25 -25 -51 -25 -30 0 -40 7 -76 55 -56 74 -81 85 -198 85
-101 0 -125 8 -162 55 -9 11 -25 30 -35 42 -11 12 -41 49 -69 82 l-50 60 -227
0 -228 1 0 -62 c0 -35 4 -81 9 -103 5 -22 11 -71 13 -110 3 -60 1 -70 -14 -73
-15 -3 -18 4 -19 35 0 21 -2 47 -4 58 -3 11 -10 73 -17 138 l-12 117 -69 0
-69 0 5 -87 c3 -49 10 -117 16 -153 10 -67 3 -92 -18 -66 -9 10 -15 66 -19
161 l-5 145 -172 0 c-148 0 -174 -2 -179 -16 -9 -23 -7 -36 4 -29 6 4 10 -5
10 -19 0 -20 -5 -26 -21 -26 -20 0 -21 4 -16 45 l7 45 -155 0 -155 0 0 -62 c0
-35 4 -79 9 -98 5 -19 12 -79 16 -132 8 -118 -3 -127 -45 -35 -23 49 -31 86
-39 177 -6 63 -11 123 -11 133 0 14 -10 17 -70 17 -66 0 -70 -1 -70 -22 l-1
-23 -19 23 c-16 19 -27 23 -66 20 l-47 -3 39 -46 c77 -90 110 -133 148 -198
22 -36 43 -68 47 -71 14 -10 99 -196 105 -231 4 -19 11 -40 17 -47 5 -7 12
-46 15 -87 4 -69 3 -75 -21 -99 -14 -14 -36 -26 -49 -26 -28 0 -113 40 -152
72 -113 91 -160 156 -222 308 -10 25 -39 83 -63 130 -25 47 -69 133 -99 193
-41 81 -59 107 -74 107 -19 0 -20 -10 -15 -712z m9647 640 c0 -4 -7 -5 -15 -2
-8 4 -15 16 -15 28 1 21 1 21 15 2 8 -11 15 -23 15 -28z m-5316 -70 c15 -139
18 -208 9 -208 -8 0 -33 173 -33 233 0 48 18 29 24 -25z m-3335 -14 c-12 -15
-12 -17 0 -9 11 6 13 4 8 -9 -4 -10 -8 -45 -8 -79 -2 -58 -2 -56 -10 28 -8 91
-5 115 14 96 7 -7 6 -15 -4 -27z m39 -244 l0 -35 -9 40 c-4 22 -8 51 -7 65 0
23 1 22 8 -5 4 -16 8 -46 8 -65z m369 6 c4 -27 2 -41 -8 -46 -20 -13 -27 -4
-27 42 -1 73 23 75 35 4z m2969 -127 c4 -7 11 -57 15 -113 10 -125 24 -234 46
-348 3 -15 2 -40 -2 -55 -7 -26 -8 -26 -15 -8 -4 11 -14 83 -23 160 -23 200
-27 233 -37 295 -4 30 -8 91 -8 135 l1 80 7 -67 c5 -37 12 -72 16 -79z m-3359
59 c-2 -13 -4 -5 -4 17 -1 22 1 32 4 23 2 -10 2 -28 0 -40z m10 -150 c-2 -13
-4 -5 -4 17 -1 22 1 32 4 23 2 -10 2 -28 0 -40z m22 -131 c1 -43 -3 -66 -9
-62 -5 3 -10 43 -9 88 1 100 17 77 18 -26z m18 -9 c-2 -18 -4 -4 -4 32 0 36 2
50 4 33 2 -18 2 -48 0 -65z m361 -56 c22 -49 30 -126 13 -136 -5 -3 -12 18
-16 46 -4 29 -14 70 -21 92 -16 45 -16 46 -6 46 5 0 18 -22 30 -48z m-521 -24
c-3 -8 -6 -5 -6 6 -1 11 2 17 5 13 3 -3 4 -12 1 -19z m-16 -28 c14 0 10 -33
-6 -54 -14 -18 -15 -15 -14 35 1 30 3 46 6 37 2 -10 9 -18 14 -18z m197 -42
l-1 -73 -6 60 c-6 56 -4 85 5 85 2 0 3 -33 2 -72z m-31 -35 c-3 -10 -5 -4 -5
12 0 17 2 24 5 18 2 -7 2 -21 0 -30z m-132 -73 c3 -5 1 -10 -4 -10 -6 0 -11 5
-11 10 0 6 2 10 4 10 3 0 8 -4 11 -10z m512 -22 c-3 -8 -6 -5 -6 6 -1 11 2 17
5 13 3 -3 4 -12 1 -19z m-873 -54 c3 -9 4 -20 0 -25 -8 -13 -44 9 -44 26 0 20
36 19 44 -1z m520 -23 c-9 -10 -26 18 -18 30 5 9 9 8 14 -7 4 -10 6 -21 4 -23z
m375 -31 c1 23 2 24 13 6 12 -21 25 -245 13 -234 -3 3 -8 35 -10 70 -1 35 -6
79 -11 98 -7 34 -8 34 -15 10 -4 -16 -7 1 -7 45 1 64 2 66 8 25 4 -26 8 -35 9
-20z m175 15 c25 -42 27 -52 24 -156 -2 -61 -6 -113 -9 -115 -9 -5 -20 91 -21
180 0 52 -4 79 -14 87 -12 10 -20 49 -10 49 2 0 16 -20 30 -45z m-525 -14
c-15 -5 -22 6 -14 19 6 9 10 9 16 -1 5 -8 4 -15 -2 -18z m-572 -14 c15 -16 23
-41 27 -82 3 -33 10 -103 15 -155 5 -52 14 -154 20 -227 6 -72 13 -143 17
-158 6 -24 4 -26 -17 -23 -19 2 -25 10 -27 38 -2 19 -8 40 -13 46 -5 6 -9 22
-8 35 0 13 -5 74 -11 134 -6 61 -17 171 -24 245 -7 74 -16 143 -21 153 -11 25
15 22 42 -6z m207 10 c27 -20 49 -157 25 -157 -6 0 -24 13 -40 29 -25 26 -29
37 -29 85 0 59 9 68 44 43z m-388 -37 c8 0 14 -4 14 -10 0 -5 -7 -7 -15 -4
-11 5 -15 -1 -15 -19 0 -32 15 -43 26 -19 5 12 10 3 15 -33 12 -85 10 -145 -6
-162 -8 -8 -13 -19 -10 -24 4 -5 1 -9 -4 -9 -6 0 -11 11 -11 25 0 14 5 25 10
25 6 0 10 7 10 15 0 8 -4 15 -10 15 -5 0 -10 11 -10 25 0 14 -4 25 -10 25 -6
0 -10 35 -9 88 0 48 3 81 6 75 2 -7 11 -13 19 -13z m-142 -107 c4 -38 11 -99
16 -138 6 -38 15 -137 21 -220 6 -82 13 -178 16 -212 3 -38 1 -63 -5 -63 -21
0 -54 37 -58 65 -10 80 -35 374 -41 484 -5 113 -4 126 13 138 10 7 21 13 25
13 4 0 10 -30 13 -67z m693 0 c-3 -10 -5 -4 -5 12 0 17 2 24 5 18 2 -7 2 -21
0 -30z m-133 -66 c12 -19 20 -76 32 -252 8 -112 24 -282 29 -305 2 -14 9 -90
15 -170 6 -80 13 -160 16 -177 5 -26 3 -33 -9 -33 -37 0 -44 25 -50 180 -4
121 -9 158 -25 188 -14 28 -20 68 -25 157 -4 67 -11 134 -16 150 -5 17 -12 92
-15 168 -6 135 -6 137 14 127 11 -6 26 -21 34 -33z m1220 -67 l6 -65 -15 55
c-17 65 -19 98 -6 85 5 -6 12 -39 15 -75z m2356 60 c0 -5 -4 -10 -10 -10 -5 0
-10 5 -10 10 0 6 5 10 10 10 6 0 10 -4 10 -10z m127 -57 c-2 -16 -4 -5 -4 22
0 28 2 40 4 28 2 -13 2 -35 0 -50z m-3359 35 c14 -14 16 -42 2 -33 -5 3 -10
-1 -10 -10 0 -9 3 -14 8 -11 4 2 6 -13 4 -35 -3 -31 -1 -39 12 -39 11 0 16 -9
16 -30 0 -27 -2 -29 -19 -21 -13 7 -21 26 -25 58 -3 27 -8 67 -12 91 -6 42 2
52 24 30z m-168 -25 c0 5 5 5 10 2 6 -4 8 -11 4 -16 -7 -12 -34 8 -34 25 0 6
5 4 10 -4 5 -8 10 -11 10 -7z m-551 -135 c1 -34 -16 -37 -22 -5 -2 12 -5 4 -6
-19 -1 -52 9 -104 20 -104 5 0 10 12 10 28 3 46 21 -66 22 -138 2 -47 -1 -64
-10 -62 -7 1 -13 -3 -13 -10 0 -6 -3 -8 -6 -5 -4 4 -2 12 3 19 11 14 5 140 -7
133 -9 -6 -30 87 -30 135 0 21 4 41 10 45 5 3 7 12 3 20 -3 8 -2 27 3 43 7 26
7 26 15 -13 4 -22 8 -52 8 -67z m541 62 c0 -5 -4 -10 -10 -10 -5 0 -10 5 -10
10 0 6 5 10 10 10 6 0 10 -4 10 -10z m750 0 c0 -5 -4 -10 -10 -10 -5 0 -10 5
-10 10 0 6 5 10 10 10 6 0 10 -4 10 -10z m2808 -56 c27 -42 21 -58 -8 -23 -11
13 -24 29 -30 36 -5 7 -10 17 -10 22 0 19 25 1 48 -35z m-3344 -107 c13 -62
14 -84 5 -97 -6 -11 -9 -6 -9 17 0 43 -9 63 -26 56 -10 -4 -14 4 -14 31 0 34
2 36 20 26 11 -6 22 -21 24 -33z m358 16 c18 -21 20 -53 4 -53 -7 0 -7 -3 1
-8 6 -4 14 -24 18 -45 6 -29 4 -37 -8 -37 -25 0 -43 29 -29 50 8 14 8 22 -3
36 -16 21 -20 74 -7 74 5 0 16 -8 24 -17z m-525 -105 c-3 -8 -6 -5 -6 6 -1 11
2 17 5 13 3 -3 4 -12 1 -19z m-26 -61 c-8 -29 -9 -27 -9 23 -1 44 1 50 9 32 5
-15 6 -36 0 -55z m736 51 c5 -7 9 -20 8 -28 -1 -8 2 -25 7 -37 5 -17 4 -23 -7
-23 -18 0 -27 15 -35 62 -8 39 7 53 27 26z m-697 -70 c0 -17 -3 -29 -6 -25 -9
9 -11 66 -2 61 4 -3 8 -19 8 -36z m170 32 c0 -5 -5 -10 -11 -10 -5 0 -7 5 -4
10 3 6 8 10 11 10 2 0 4 -4 4 -10z m0 -40 c0 -5 -2 -10 -4 -10 -3 0 -8 5 -11
10 -3 6 -1 10 4 10 6 0 11 -4 11 -10z m366 -72 c-4 -48 -3 -64 3 -48 7 20 9
12 10 -37 1 -39 5 -63 14 -66 9 -3 9 -11 0 -35 -6 -18 -7 -32 -2 -32 5 0 8
-19 7 -42 -1 -38 -2 -39 -5 -10 -5 35 -22 35 -24 -1 -2 -31 -17 100 -24 208
-3 50 -8 100 -10 113 -4 17 -1 22 15 22 20 0 21 -4 16 -72z m-548 -7 c-15 -6
-20 7 -12 31 l8 23 6 -25 c3 -14 2 -27 -2 -29z m183 -71 c1 -48 2 -51 8 -20
11 60 33 -125 31 -253 -3 -139 -2 -150 10 -142 15 9 21 -16 18 -74 l-3 -51
-26 24 c-26 24 -27 30 -34 168 -3 79 -10 159 -15 178 -4 19 -11 89 -14 155 -5
108 -4 118 9 95 8 -14 15 -50 16 -80z m549 80 c0 -5 -6 -15 -14 -22 -8 -8 -16
-23 -19 -34 -2 -10 -5 2 -6 28 -1 41 1 46 19 41 11 -3 20 -9 20 -13z m-713
-72 c-2 -13 -4 -5 -4 17 -1 22 1 32 4 23 2 -10 2 -28 0 -40z m1081 -153 c7
-66 17 -174 21 -240 5 -66 14 -143 20 -172 6 -29 13 -126 16 -215 4 -90 10
-172 15 -183 12 -27 30 -156 24 -167 -11 -17 -20 -7 -37 42 -13 37 -17 79 -17
167 1 65 -2 129 -5 143 -15 65 -26 147 -35 275 -6 77 -15 172 -21 210 -6 39
-12 97 -15 130 -2 33 -7 87 -10 120 l-6 60 18 -25 c13 -18 22 -60 32 -145z
m-1443 139 c35 -14 47 -63 53 -210 l5 -143 30 -7 c30 -6 150 -73 257 -143 30
-19 64 -40 75 -46 183 -99 194 -122 225 -453 6 -57 12 -123 14 -145 2 -23 10
-109 16 -192 7 -82 15 -154 20 -158 11 -12 11 102 0 123 -5 10 -10 65 -10 122
-1 128 -9 210 -21 202 -14 -8 -10 98 5 150 17 56 16 49 17 89 4 111 45 -230
59 -488 6 -104 15 -226 20 -269 6 -44 10 -104 10 -135 0 -49 -1 -53 -14 -36
-13 18 -14 17 -20 -12 -6 -27 -12 -32 -37 -31 -28 1 -30 3 -25 32 3 17 3 25 0
18 -3 -7 -24 -22 -46 -33 l-41 -21 -159 81 c-88 45 -167 81 -176 81 -9 0 -28
9 -42 20 -14 11 -28 20 -32 20 -11 0 -10 -54 2 -66 5 -5 14 -103 19 -217 6
-114 13 -217 16 -230 2 -12 -3 -38 -13 -57 -14 -28 -23 -35 -44 -33 -20 1 -25
-2 -21 -17 3 -12 -3 -20 -24 -28 -50 -17 -63 -1 -62 76 1 92 14 123 22 52 6
-47 18 -69 38 -70 10 0 -1 279 -12 309 -6 14 -14 84 -18 155 -7 109 -11 131
-27 143 -15 11 -17 17 -6 33 17 28 15 40 -8 40 -11 0 -25 10 -31 23 -14 29
-34 44 -160 111 -71 37 -117 56 -141 56 -24 0 -49 10 -79 33 -24 18 -60 43
-80 55 -61 37 -74 66 -70 152 2 41 3 89 3 105 -1 89 -21 517 -26 560 -3 28
-11 110 -17 182 -10 119 -10 135 5 158 26 40 78 34 183 -22 48 -25 90 -50 91
-55 2 -4 10 -8 18 -8 8 0 22 -9 31 -20 10 -11 23 -20 29 -20 7 0 14 -4 16 -8
4 -10 85 -52 100 -52 9 0 9 3 0 12 -14 14 -16 88 -2 88 9 0 17 -34 22 -95 2
-18 9 -31 19 -33 14 -3 16 5 12 45 -11 136 -15 153 -29 153 -16 0 -29 42 -20
65 6 15 51 20 81 9z m3277 -36 c68 -41 215 -175 288 -263 30 -37 60 -72 66
-79 6 -6 19 -26 27 -43 9 -17 22 -37 29 -45 20 -22 106 -183 129 -243 8 -19
45 -138 51 -162 2 -7 24 4 56 28 51 39 52 41 52 94 0 30 -4 57 -10 60 -5 3
-10 40 -10 82 0 42 3 73 7 70 3 -4 12 -56 19 -117 7 -60 15 -114 19 -120 5 -8
15 -6 33 6 494 325 1085 540 1707 621 175 23 757 26 925 5 936 -115 1743 -504
2390 -1152 420 -421 720 -889 928 -1450 268 -724 317 -1557 136 -2310 -221
-921 -734 -1700 -1504 -2284 l-115 -87 -90 98 c-49 54 -143 153 -208 219 -108
111 -127 126 -214 168 -79 39 -103 46 -153 46 -46 0 -76 8 -134 34 -42 19 -76
32 -76 28 0 -4 11 -43 25 -87 37 -120 34 -164 -16 -231 -22 -31 -53 -86 -69
-124 -32 -76 -189 -310 -385 -570 -72 -96 -198 -264 -279 -374 -81 -109 -176
-230 -210 -270 -34 -39 -95 -120 -136 -181 -40 -60 -97 -136 -126 -167 -30
-31 -54 -61 -54 -66 0 -5 -21 -31 -47 -56 -40 -40 -43 -47 -23 -42 49 12 1923
296 1927 293 4 -4 -2 -16 -294 -532 -394 -699 -427 -755 -435 -755 -9 0 -384
303 -535 432 -50 43 -110 85 -133 93 -23 8 -132 63 -241 121 -113 60 -204 103
-208 98 -5 -5 -44 -115 -87 -245 l-77 -235 -41 -17 c-177 -71 -637 -262 -706
-292 -185 -81 -454 -185 -461 -178 -13 14 -570 1446 -567 1457 2 7 103 106
224 221 l222 210 96 34 c84 29 97 36 102 60 3 14 43 116 90 226 46 110 109
281 140 380 49 155 67 197 127 298 38 64 68 119 66 121 -2 2 -95 -64 -205
-148 -111 -84 -243 -180 -294 -214 -92 -61 -94 -63 -151 -167 -33 -58 -59
-110 -59 -115 0 -6 -4 -10 -9 -10 -43 0 -419 177 -590 277 -196 115 -413 269
-581 413 -84 71 -132 100 -180 107 -14 3 -32 11 -41 19 -8 8 -23 14 -31 14 -9
0 -21 7 -28 15 -7 8 -19 15 -27 15 -7 0 -24 6 -36 14 -29 18 -272 144 -522
270 -110 56 -209 107 -220 113 -11 6 -47 24 -80 40 -33 15 -62 31 -65 34 -3 3
-16 10 -30 14 -14 4 -36 15 -50 25 -14 9 -82 45 -151 79 -110 54 -132 61 -163
56 -40 -8 -47 -20 -16 -28 11 -3 20 -10 20 -16 0 -16 -27 -13 -34 4 -3 8 -15
15 -27 15 -12 0 -23 8 -26 20 -4 15 -14 20 -38 20 -37 0 -82 31 -71 48 4 7 20
12 36 12 54 0 40 17 -53 63 -51 26 -103 53 -117 61 -14 8 -79 40 -145 72 -66
32 -131 66 -145 75 -14 9 -36 20 -50 24 -39 12 -54 26 -38 36 30 20 76 9 205
-47 17 -8 38 -14 47 -14 9 0 19 -7 22 -15 6 -15 64 -47 229 -127 44 -21 87
-43 95 -49 8 -5 23 -12 32 -15 10 -4 23 -24 30 -45 l11 -39 54 0 c52 0 53 1
47 25 -4 18 -1 27 10 31 21 8 48 -24 42 -48 -7 -30 28 -21 47 12 16 27 18 46
12 163 -4 72 -11 142 -17 155 -9 16 -8 28 2 47 11 21 11 27 -2 42 -10 11 -18
44 -21 83 -3 36 -9 82 -12 103 -6 32 -5 37 12 37 11 0 27 -8 35 -17 17 -20 38
-163 38 -259 0 -32 7 -97 15 -144 17 -99 19 -183 5 -211 -6 -10 -25 -26 -42
-35 l-32 -17 25 -20 c13 -11 94 -53 179 -94 85 -40 162 -78 170 -83 8 -6 25
-14 37 -20 13 -5 40 -18 60 -28 21 -11 137 -70 257 -131 120 -61 227 -111 236
-111 22 0 50 41 50 73 0 14 -36 68 -94 141 -52 65 -138 185 -192 267 l-99 148
-3 -60 c-2 -34 4 -95 12 -136 25 -117 22 -155 -14 -193 -40 -42 -54 -30 -36
30 10 32 11 62 6 100 -5 30 -11 111 -14 180 -4 69 -12 148 -20 175 -7 28 -51
127 -98 220 -207 421 -335 865 -382 1335 -57 558 -7 1070 159 1619 14 47 25
100 25 118 0 48 -33 107 -77 137 -94 65 -173 116 -178 116 -4 0 -13 7 -21 15
-25 25 -34 17 -34 -31 0 -43 1 -46 23 -40 50 16 52 14 58 -49 4 -33 7 -97 8
-143 l1 -84 -32 8 c-18 4 -47 6 -64 5 -17 -1 -44 4 -60 10 -16 6 -40 13 -54
15 -46 9 -53 25 -40 88 6 32 12 114 12 184 0 109 3 132 21 161 17 29 18 36 7
55 -7 11 -14 52 -16 91 -4 138 -17 250 -32 273 -10 15 -13 36 -9 66 4 24 2 72
-4 107 -6 35 -14 116 -19 179 -13 162 -29 281 -41 306 -33 66 28 101 75 42 14
-18 31 -39 37 -46 7 -8 15 -10 22 -4 7 5 22 12 34 14 32 8 43 -31 54 -192 16
-217 24 -298 29 -302 3 -2 22 -13 43 -23 21 -11 53 -32 70 -46 l32 -27 -61
-18 c-38 -12 -59 -24 -56 -32 2 -6 10 -12 17 -12 7 0 15 -4 17 -8 2 -5 29 -23
61 -41 44 -25 57 -29 57 -17 0 9 -9 87 -19 173 -26 211 -32 393 -14 400 23 9
58 -34 71 -84 7 -27 17 -88 22 -138 23 -204 55 -356 48 -225 -1 30 -6 58 -11
61 -5 3 -2 12 5 20 20 21 22 88 3 157 -15 60 -15 62 5 82 28 28 40 25 40 -12
1 -139 14 -376 21 -390 20 -38 11 -57 -30 -64 -29 -5 -41 -12 -45 -28 -6 -21
-2 -26 63 -78 11 -10 21 -29 21 -43 0 -16 6 -25 15 -25 8 0 15 -4 15 -9 0 -5
3 -17 6 -26 11 -28 -90 20 -224 106 -67 43 -125 79 -128 79 -3 0 -25 14 -49
30 -24 17 -46 30 -49 30 -12 0 -6 -59 6 -67 7 -4 25 -6 39 -5 22 3 27 -2 33
-29 3 -17 6 -64 6 -103 l0 -72 34 -12 c19 -7 65 -35 103 -63 84 -62 83 -62 53
-55 -14 4 -40 8 -59 10 -18 2 -36 8 -40 13 -3 5 -16 10 -28 11 -56 5 -63 7
-63 22 0 12 -2 13 -9 1 -12 -19 -25 21 -16 50 5 15 3 20 -6 17 -19 -6 -12 -80
8 -93 54 -35 261 -182 277 -197 11 -10 24 -18 28 -18 5 0 13 -11 18 -25 11
-29 28 -33 37 -7 3 9 28 66 56 127 42 94 48 114 42 150 -8 52 -35 325 -41 434
-7 108 0 143 31 161 18 11 22 19 15 30 -8 12 -11 11 -16 -7 -10 -37 -24 -15
-24 38 0 51 8 60 30 34 10 -12 24 -14 56 -9 38 5 51 2 109 -32 36 -21 65 -42
65 -46 0 -14 -43 -30 -71 -26 -49 8 -34 -16 32 -51 49 -25 69 -22 69 9 0 11
12 38 28 60 26 39 29 41 74 37 26 -2 49 0 50 4 4 11 85 110 194 237 104 122
342 357 456 451 l78 63 -63 68 c-34 37 -72 87 -85 111 -13 24 -39 71 -58 104
-19 33 -39 71 -45 85 -6 13 -13 27 -17 30 -4 3 -43 77 -86 165 -44 88 -97 195
-118 237 -21 42 -34 79 -29 82 18 11 58 -46 127 -180 217 -423 295 -562 343
-608 33 -32 84 -49 100 -33 18 18 13 98 -10 162 -21 63 -96 219 -129 270 -11
17 -23 37 -27 45 -16 37 -155 193 -239 270 -94 85 -93 84 -161 121 -70 37 -77
44 -68 59 11 18 55 6 117 -32z m-2175 -203 c1 -44 -1 -70 -4 -57 -2 13 -11 26
-19 29 -16 6 -19 92 -7 179 l6 49 12 -60 c7 -33 12 -96 12 -140z m2823 79 c0
-28 3 -66 6 -83 4 -18 2 -31 -4 -31 -16 0 -22 25 -28 118 -5 80 -4 85 10 68
10 -12 16 -39 16 -72z m-4064 41 c20 -15 13 -18 -23 -9 -13 4 -23 10 -23 15 0
14 24 11 46 -6z m1727 -32 c2 -5 1 -21 -3 -38 l-6 -30 -5 38 c-4 33 3 50 14
30z m-1195 -185 c0 -66 -4 -88 -14 -88 -7 0 -18 9 -23 19 -9 16 -8 18 12 14
13 -3 18 -1 11 4 -17 13 -22 36 -13 61 6 15 5 22 -4 22 -9 0 -9 2 1 8 7 5 12
17 11 28 -1 10 -1 42 1 69 l3 50 8 -50 c4 -27 7 -89 7 -137z m-41 80 c-3 -8
-6 -5 -6 6 -1 11 2 17 5 13 3 -3 4 -12 1 -19z m1272 -81 c1 -38 6 -88 12 -112
9 -36 8 -48 -5 -67 -9 -12 -16 -20 -17 -18 -8 43 -12 180 -5 180 5 0 6 28 3
63 -4 40 -3 55 3 42 5 -11 9 -51 9 -88z m-22 1 c-3 -7 -5 -2 -5 12 0 14 2 19
5 13 2 -7 2 -19 0 -25z m2347 -9 c3 -17 5 -64 4 -103 -1 -52 -3 -59 -5 -26 -3
25 -8 49 -14 55 -11 12 -12 105 0 105 5 0 11 -14 15 -31z m-2826 -61 c0 -7 5
-65 11 -128 6 -63 11 -152 11 -198 0 -46 4 -81 9 -78 8 5 13 -40 27 -264 3
-47 12 -117 19 -156 8 -39 18 -121 21 -183 l7 -113 -21 13 c-19 12 -22 23 -23
94 -1 44 0 95 1 113 1 19 -5 41 -13 50 -12 13 -17 55 -21 182 -3 91 -5 169 -5
173 -1 5 -5 6 -10 3 -5 -3 -12 36 -16 87 -11 140 -15 417 -6 417 4 0 8 -6 9
-12z m-31 -40 c-3 -7 -5 -2 -5 12 0 14 2 19 5 13 2 -7 2 -19 0 -25z m-148 -40
c1 7 6 10 11 7 6 -3 9 -44 9 -93 -2 -69 -3 -79 -9 -47 -4 22 -8 31 -9 20 -1
-17 -3 -17 -11 -5 -6 9 -6 18 0 24 6 6 10 21 10 36 -1 24 -1 24 -15 6 -14 -18
-15 -14 -14 50 l1 69 13 -40 c7 -22 13 -34 14 -27z m-517 22 c26 -16 29 -20
13 -20 -11 0 -28 9 -38 20 -21 25 -16 25 25 0z m1605 -252 c-3 -7 -5 -2 -5 12
0 14 2 19 5 13 2 -7 2 -19 0 -25z m-362 -142 c-4 -135 5 -183 24 -136 9 22 10
21 8 -15 -2 -33 -6 -41 -24 -43 -19 -3 -22 3 -28 61 -4 36 -5 91 -2 123 3 33
6 84 7 114 0 37 3 50 9 41 5 -8 8 -73 6 -145z m-718 32 c-2 -18 -4 -6 -4 27 0
33 2 48 4 33 2 -15 2 -42 0 -60z m1276 -130 c9 -73 18 -164 21 -201 5 -61 3
-68 -12 -65 -14 3 -18 22 -24 128 -4 69 -12 136 -17 150 -5 14 -12 51 -15 83
-6 54 -5 57 12 48 16 -8 22 -34 35 -143z m-1230 45 c17 -95 30 -291 16 -258
-4 11 -8 14 -8 8 -1 -7 -5 -13 -10 -13 -5 0 -11 26 -14 58 -3 31 -11 88 -17
125 -9 52 -9 80 0 118 7 27 13 49 15 49 1 0 10 -39 18 -87z m1718 -42 c4 -19
9 -68 10 -110 3 -62 1 -76 -11 -76 -12 0 -16 17 -18 79 -2 48 -9 87 -17 99
-11 16 -12 24 -3 34 17 20 32 10 39 -26z m-141 -97 c0 -59 -24 -55 -28 4 -2
33 0 42 12 42 12 0 16 -11 16 -46z m173 -211 c3 -38 12 -104 20 -148 9 -44 17
-111 19 -150 3 -64 1 -70 -17 -70 -19 0 -20 9 -27 155 -4 85 -10 183 -13 218
-4 37 -3 62 3 62 5 0 12 -30 15 -67z m-1712 -23 c5 0 9 -27 9 -59 0 -54 -2
-59 -20 -54 -12 3 -20 14 -21 27 0 11 -2 41 -4 66 -2 31 0 39 5 25 7 -17 9
-16 11 10 1 24 3 26 6 8 2 -13 9 -23 14 -23z m1566 -67 c-2 -16 -4 -5 -4 22 0
28 2 40 4 28 2 -13 2 -35 0 -50z m-1557 -108 c0 -14 -4 -25 -9 -25 -12 0 -23
29 -15 41 10 18 24 9 24 -16z m-1528 -75 c23 -17 26 -29 33 -122 4 -57 10
-121 12 -143 16 -148 23 -228 32 -365 5 -85 8 -157 6 -159 -2 -1 -16 1 -32 6
-24 8 -29 17 -35 59 -13 85 -27 266 -27 357 -1 49 -5 97 -11 107 -14 26 -26
280 -13 280 6 0 21 -9 35 -20z m1715 -97 c-5 -7 -16 -13 -23 -13 -18 0 -20 96
-1 103 16 5 38 -73 24 -90z m-1001 -82 c-5 -33 -13 -58 -17 -56 -12 8 -9 109
3 116 21 14 24 1 14 -60z m1024 10 c0 -5 -9 -11 -20 -14 -20 -5 -26 3 -13 16
9 10 33 8 33 -2z m-213 -63 c-2 -13 -4 -3 -4 22 0 25 2 35 4 23 2 -13 2 -33 0
-45z m34 -33 c1 11 6 -23 10 -75 4 -52 11 -117 15 -143 5 -38 3 -51 -10 -60
-14 -10 -14 -18 -3 -55 7 -23 16 -40 19 -37 13 13 29 -108 26 -189 -2 -46 0
-82 3 -80 4 2 9 -29 13 -69 3 -39 8 -89 12 -109 5 -30 3 -38 -9 -38 -35 0 -44
26 -50 157 -4 70 -12 157 -18 193 -7 36 -12 144 -13 242 0 97 -4 171 -8 165
-13 -21 -21 22 -13 71 6 37 9 43 16 27 l8 -20 2 20z m176 -17 c-3 -7 -5 -2 -5
12 0 14 2 19 5 13 2 -7 2 -19 0 -25z m12 -158 c-1 -52 -4 -129 -8 -170 l-6
-75 -8 125 c-4 69 -10 136 -14 149 -5 20 -3 23 9 18 14 -5 15 1 12 36 -3 31
-2 38 6 27 5 -8 9 -58 9 -110z m-534 -79 c8 -13 41 -340 47 -456 3 -70 3 -70
-22 -66 -14 1 -28 8 -32 14 -3 6 -9 58 -12 116 -6 96 -20 256 -31 338 -5 43
32 83 50 54z m568 -193 c9 -79 17 -163 17 -188 0 -25 7 -93 16 -153 9 -59 14
-110 10 -114 -3 -3 -17 -1 -31 5 -22 10 -24 15 -14 33 8 15 8 28 1 43 -17 34
-42 374 -32 426 5 25 6 55 3 68 -3 12 -1 22 4 22 4 0 16 -64 26 -142z m-929
100 c13 -22 27 -158 30 -293 1 -55 -1 -60 -19 -57 -11 2 -24 7 -28 11 -11 11
-24 118 -32 254 -5 102 -5 107 14 107 12 0 27 -10 35 -22z m203 -143 c7 -72
16 -156 19 -188 l7 -59 -29 4 c-29 3 -29 4 -26 63 2 62 7 122 12 140 8 31 -4
24 -15 -10 l-13 -40 -1 60 c0 36 3 55 8 47 6 -11 9 -9 13 5 3 11 -1 28 -8 38
-8 10 -14 13 -14 7 0 -7 -4 -12 -10 -12 -15 0 -12 67 3 73 37 16 42 4 54 -128z
m-544 -257 c6 -19 -3 -38 -18 -38 -17 0 -38 27 -30 40 9 14 42 13 48 -2z
m-191 -290 c9 -8 19 -37 23 -70 6 -53 5 -58 -13 -58 -27 0 -49 29 -57 77 -10
60 9 80 47 51z m206 -73 c7 -75 9 -78 59 -70 25 4 57 11 70 16 20 8 22 12 13
30 -11 19 -9 20 22 17 30 -3 33 -7 39 -41 4 -28 19 -51 53 -84 25 -25 46 -49
46 -53 0 -13 49 -64 56 -58 3 4 1 30 -5 58 -6 28 -11 71 -11 96 0 44 1 45 28
42 26 -3 27 -6 35 -78 4 -41 11 -127 15 -190 5 -63 16 -137 25 -165 36 -111
46 -185 64 -485 6 -99 -23 -322 -49 -378 -26 -54 -92 -95 -154 -95 -67 0 -146
58 -211 158 -29 44 -53 85 -53 91 0 7 -7 14 -15 18 -8 3 -15 1 -15 -5 0 -6
-10 -9 -22 -7 -16 2 -30 17 -45 48 l-21 45 -7 -28 c-10 -37 -28 -29 -39 15
-11 45 -3 68 26 68 13 0 32 7 42 15 11 8 34 15 52 15 41 0 78 -41 98 -109 42
-142 145 -263 210 -247 33 8 76 45 87 75 24 61 50 367 33 384 -4 3 -23 -5 -43
-18 -46 -32 -121 -34 -168 -5 -56 33 -159 143 -180 190 -11 25 -28 72 -37 105
-10 33 -24 78 -31 100 -23 69 -27 182 -10 280 11 61 13 96 6 110 -5 11 -12 55
-14 98 l-4 78 26 -3 c21 -2 27 -9 29 -33z m586 -109 c8 -14 8 -20 0 -23 -13
-4 -7 -40 9 -61 5 -6 9 -53 8 -104 -1 -50 2 -94 7 -97 9 -6 25 -101 17 -101
-9 0 -55 24 -56 29 0 3 -2 35 -4 71 -1 36 -8 113 -15 171 -7 58 -10 114 -7
123 8 21 26 17 41 -8z m191 -28 c5 -15 20 -147 37 -326 l12 -123 25 6 c14 4
39 13 55 21 50 24 126 18 178 -15 29 -19 54 -28 67 -24 13 3 21 1 21 -6 0 -7
4 -10 9 -7 12 8 31 -40 31 -79 0 -18 3 -35 8 -37 10 -4 38 -64 62 -133 26 -76
28 -229 4 -263 -11 -17 -16 -46 -15 -107 0 -70 4 -90 23 -122 62 -101 109
-288 90 -358 -6 -23 -16 -31 -41 -36 -17 -4 -40 -14 -51 -24 -21 -19 -55 -13
-47 9 3 7 -2 82 -10 167 -8 85 -17 177 -20 206 -4 45 -11 58 -48 96 -41 43
-46 45 -120 52 -110 10 -110 9 -109 -160 0 -73 5 -140 10 -147 6 -7 21 -41 34
-75 14 -35 28 -63 32 -63 5 0 8 -6 8 -14 0 -18 97 -116 116 -116 8 0 14 -10
14 -25 0 -22 -4 -25 -34 -25 -44 0 -99 44 -153 123 -43 63 -83 157 -83 194 0
11 -7 37 -15 56 -20 49 -19 163 4 262 l18 80 57 -2 c42 -1 55 1 49 10 -4 7
-23 35 -43 63 -20 28 -44 71 -54 95 -10 24 -26 60 -34 79 -11 24 -17 72 -18
155 -1 66 -3 126 -3 133 -1 7 -19 19 -41 28 -32 13 -40 21 -41 43 0 25 -12
160 -28 326 -4 44 -6 83 -4 88 7 12 43 8 48 -5z m388 -133 c12 -83 17 -216 8
-210 -5 2 -8 21 -6 40 2 19 -1 37 -6 40 -5 4 -10 -13 -11 -37 -1 -38 -2 -35
-10 22 -4 36 -11 96 -14 133 -6 64 -5 69 12 65 14 -2 21 -16 27 -53z m169 13
c12 -10 18 -45 26 -138 9 -125 6 -150 -23 -150 -20 0 -41 136 -24 156 9 11 9
23 1 52 -25 79 -17 109 20 80z m-1467 -225 c10 -23 12 -40 6 -46 -11 -11 -26
14 -36 62 -9 44 9 34 30 -16z m2064 -145 c7 -68 14 -141 17 -163 5 -36 3 -41
-22 -52 -15 -7 -29 -12 -30 -10 -2 2 -7 107 -5 125 0 7 6 10 11 7 18 -11 10
22 -10 40 -16 15 -20 31 -20 90 0 76 3 85 30 85 14 0 19 -20 29 -122z m-540
-110 c5 -81 12 -152 16 -158 4 -6 4 -18 1 -27 -9 -23 -36 3 -36 34 0 14 -6 39
-14 56 -8 18 -18 75 -23 127 -10 89 -9 96 10 113 11 10 24 14 28 10 5 -5 13
-75 18 -155z m352 135 c0 -10 4 -67 9 -128 4 -60 6 -114 3 -118 -3 -4 -11 -3
-19 4 -9 7 -14 32 -14 68 0 31 -4 72 -9 91 -21 83 -22 88 -4 93 31 8 33 7 34
-10z m219 -378 c0 -99 9 -137 64 -272 38 -93 33 -143 -12 -129 -12 4 -26 30
-40 79 -30 99 -74 172 -110 185 -42 14 -59 1 -44 -33 10 -21 10 -31 1 -41 -24
-29 -60 -4 -73 49 -5 22 -12 28 -29 25 -19 -3 -22 -9 -21 -43 2 -51 25 -177
35 -190 4 -5 13 -45 20 -87 14 -85 5 -112 -35 -106 -17 3 -22 15 -32 73 -6 39
-21 106 -32 150 -11 44 -23 102 -26 129 -4 33 -13 54 -26 63 -28 20 -25 40 10
58 17 9 30 20 30 25 0 14 55 70 69 70 6 0 11 5 11 10 0 6 12 10 28 10 21 0 34
-10 57 -45 29 -42 66 -65 106 -65 20 0 19 19 -3 107 -12 48 0 73 33 73 17 0
19 -9 19 -95z m-2252 -17 c12 -16 37 -136 29 -144 -3 -3 -19 2 -35 10 -33 17
-39 36 -33 104 3 42 18 54 39 30z m39 -220 c19 -15 16 -28 -5 -28 -10 0 -29
12 -43 26 l-24 27 30 -7 c16 -4 36 -12 42 -18z m389 -496 c24 -19 23 -18 48
-342 17 -220 14 -304 -9 -331 -31 -33 -40 -23 -41 43 -1 112 -15 311 -26 376
-8 48 -7 66 2 77 10 13 10 19 -3 33 -9 11 -16 43 -19 90 -4 79 5 89 48 54z
m201 -107 c18 -13 21 -28 27 -142 4 -70 14 -179 22 -241 21 -166 19 -206 -8
-220 -44 -21 -68 -24 -68 -8 0 8 5 18 10 21 13 8 13 189 0 252 -5 26 -14 107
-19 178 -5 72 -13 140 -17 153 -5 17 -2 22 13 22 10 0 28 -7 40 -15z m891 -72
c2 -8 -6 -13 -22 -13 -17 0 -26 5 -26 16 0 19 41 16 48 -3z m-678 -52 c0 -3 7
-89 14 -191 12 -157 12 -186 0 -193 -30 -17 -28 -21 -38 98 -4 44 -14 131 -22
193 -8 62 -12 117 -9 122 6 10 55 -16 55 -29z m180 -87 c0 -17 -22 -14 -28 4
-2 7 3 12 12 12 9 0 16 -7 16 -16z m60 -124 c0 -23 -4 -30 -20 -30 -14 0 -20
7 -20 23 0 27 7 37 27 37 8 0 13 -12 13 -30z m1389 -306 c2 -2 1 -10 -3 -19
-5 -14 -8 -14 -36 0 -40 21 -38 36 3 28 17 -3 34 -7 36 -9z m-276 -200 c29
-20 42 -33 30 -29 -12 3 -31 0 -41 -6 -18 -11 -25 -8 -56 19 -20 18 -43 32
-51 32 -8 0 -15 5 -15 10 0 6 18 10 40 10 30 0 54 -9 93 -36z m-177 -29 c4
-14 4 -29 0 -32 -3 -4 -6 3 -6 15 0 31 -14 27 -55 -15 -33 -34 -37 -46 -40
-116 -1 -18 -10 -36 -26 -47 -19 -15 -22 -21 -11 -31 7 -8 12 -39 12 -78 0
-53 -4 -69 -22 -88 -26 -28 -64 -32 -52 -5 12 25 17 152 7 152 -5 0 -14 -5
-21 -12 -9 -9 -12 -8 -12 4 0 8 13 21 29 28 44 18 50 70 9 70 -17 0 -18 3 -8
14 8 11 18 12 36 5 33 -12 31 -12 37 11 3 11 1 20 -4 20 -5 0 -9 -4 -9 -10 0
-5 -5 -10 -12 -10 -6 0 -8 3 -5 7 4 3 1 13 -5 21 -10 12 -8 18 10 31 13 9 44
33 70 54 55 44 69 46 78 12z m54 -119 c-14 -14 -24 0 -16 21 6 15 8 15 16 3 6
-9 5 -19 0 -24z m204 -136 c9 -85 21 -181 27 -213 13 -72 0 -116 -40 -140 -27
-16 -61 -15 -61 2 0 4 11 13 24 20 34 18 37 66 15 241 -24 188 -24 226 -2 239
10 5 19 9 19 8 1 -1 9 -72 18 -157z m548 -39 c12 -12 20 -76 24 -211 2 -74 6
-155 10 -180 3 -25 8 -77 10 -115 4 -61 2 -74 -16 -93 -11 -12 -24 -22 -28
-22 -12 0 -38 20 -26 20 5 0 18 18 28 40 14 32 15 46 6 80 -6 22 -11 59 -10
83 1 66 -8 206 -14 215 -3 5 -10 45 -15 88 -5 44 -12 87 -16 98 -7 16 -5 17
16 11 13 -4 27 -10 31 -14z m-1152 -25 c0 -3 -4 -8 -10 -11 -5 -3 -10 -1 -10
4 0 6 5 11 10 11 6 0 10 -2 10 -4z"/>
<path d="M2071 11514 c0 -11 3 -14 6 -6 3 7 2 16 -1 19 -3 4 -6 -2 -5 -13z"/>
<path d="M187 11468 c2 -40 8 -95 13 -123 5 -27 15 -120 21 -205 6 -85 15
-200 19 -255 5 -70 6 -41 3 96 -4 178 -2 197 14 215 10 11 17 18 16 15 -2 -2
1 -9 7 -16 14 -17 40 -222 55 -426 l6 -76 -47 -15 c-43 -14 -49 -19 -60 -59
-7 -24 -10 -47 -6 -50 4 -3 32 -19 62 -35 30 -15 62 -33 70 -39 41 -32 52 -23
15 13 -22 21 -43 37 -47 35 -12 -7 -57 31 -57 47 0 18 66 70 88 70 20 0 228
-114 257 -141 11 -10 26 -19 33 -19 7 0 10 -4 6 -9 -3 -5 -32 -10 -64 -10 -33
0 -69 -6 -80 -13 -16 -10 -23 -9 -38 4 -16 14 -20 15 -37 2 -11 -7 -16 -17
-12 -21 4 -4 11 -1 16 7 7 12 12 12 22 2 9 -9 9 -12 -3 -12 -19 -1 19 -30 39
-30 8 0 23 -11 33 -24 11 -14 29 -28 40 -31 12 -4 40 -20 64 -36 63 -43 76
-39 54 18 -6 15 -12 60 -13 98 -2 39 -9 99 -15 135 -7 36 -14 165 -16 286 -1
122 -7 230 -12 240 -13 25 -15 137 -3 169 8 22 7 25 -11 25 -11 0 -35 11 -52
24 -18 13 -95 59 -172 101 -77 43 -152 86 -167 97 -14 10 -30 18 -36 18 -5 0
-8 -30 -5 -72z m84 -231 c-13 -13 -15 1 -4 30 7 17 8 17 11 -1 2 -10 -1 -23
-7 -29z"/>
<path d="M725 11173 c3 -32 10 -89 15 -128 5 -38 12 -88 15 -110 2 -22 9 -58
14 -80 8 -37 9 -34 11 35 1 41 4 88 6 103 3 19 1 26 -6 22 -5 -3 -10 -2 -10 4
0 15 43 52 51 44 4 -5 9 -37 12 -73 7 -87 26 -259 32 -288 2 -13 7 -97 11
-188 5 -126 4 -164 -5 -164 -7 0 -19 -7 -28 -15 -8 -8 -19 -13 -24 -10 -11 7
-12 -85 -1 -100 4 -5 25 -19 47 -30 22 -11 67 -38 100 -60 33 -22 69 -45 80
-51 11 -6 47 -28 80 -48 78 -48 109 -46 113 7 2 21 -1 60 -7 86 -6 26 -13 108
-17 182 -4 74 -11 142 -16 151 -5 10 -13 111 -18 225 -11 270 -16 284 -110
337 -39 22 -70 43 -70 48 0 4 -6 8 -13 8 -7 0 -36 16 -66 35 -29 19 -55 35
-57 35 -2 0 -33 18 -69 40 -36 22 -68 40 -70 40 -3 0 -3 -26 0 -57z m235 -899
c74 -27 181 -95 159 -102 -7 -3 -18 -11 -24 -18 -8 -11 -20 -11 -55 -3 -25 6
-51 12 -58 13 -15 3 -38 22 -69 59 -13 15 -31 27 -40 27 -12 0 -18 8 -19 24
-2 20 4 26 25 28 14 2 35 -2 46 -9 11 -7 27 -16 35 -19z"/>
<path d="M776 10797 c3 -10 9 -15 12 -12 3 3 0 11 -7 18 -10 9 -11 8 -5 -6z"/>
<path d="M350 10600 c0 -5 5 -10 10 -10 6 0 10 5 10 10 0 6 -4 10 -10 10 -5 0
-10 -4 -10 -10z"/>
<path d="M1351 10073 c0 -40 2 -73 7 -73 4 0 6 24 4 52 -5 89 -9 97 -11 21z"/>
<path d="M2717 9852 c-15 -3 -17 -12 -15 -49 3 -42 5 -46 41 -58 30 -10 37
-10 37 0 0 7 -9 15 -21 18 -14 4 -18 10 -13 18 5 9 2 10 -9 6 -21 -8 -21 2 -1
32 18 25 9 40 -19 33z"/>
<path d="M3284 9779 c14 -79 25 -178 26 -241 0 -59 2 -68 18 -68 11 0 24 12
31 26 12 27 6 49 -10 39 -12 -8 -11 5 2 44 8 22 8 35 0 44 -7 10 -5 17 8 29
16 14 19 14 29 -3 7 -10 12 -31 12 -46 0 -27 1 -26 29 16 27 41 28 46 14 67
-8 13 -14 26 -13 31 2 4 -13 16 -31 26 -19 11 -54 31 -78 45 l-44 26 7 -35z"/>
<path d="M7148 9670 l-28 -40 -213 0 c-243 0 -285 -8 -376 -69 -141 -95 -158
-101 -272 -101 -94 0 -112 -3 -179 -31 -49 -21 -93 -48 -127 -80 -28 -27 -60
-49 -70 -49 -10 -1 -35 -7 -55 -14 -32 -12 -40 -11 -67 6 l-31 20 -27 -30
c-16 -17 -60 -52 -99 -79 -116 -79 -161 -124 -192 -194 -24 -52 -42 -74 -94
-115 -61 -49 -66 -56 -86 -125 -12 -41 -22 -86 -22 -102 0 -15 -13 -60 -30
-100 -17 -41 -36 -112 -43 -165 -16 -109 -12 -120 72 -191 60 -49 146 -81 221
-81 27 0 51 -4 54 -9 3 -4 -15 -69 -40 -142 -24 -74 -43 -142 -40 -152 3 -11
2 -16 -1 -13 -3 3 -18 -12 -33 -33 -16 -21 -49 -58 -75 -82 -61 -58 -84 -98
-94 -159 -7 -46 -6 -51 13 -54 117 -21 151 -30 215 -56 69 -28 81 -30 211 -30
110 0 159 5 247 25 279 63 466 71 703 30 199 -34 257 -49 285 -75 20 -19 40
-23 140 -31 64 -5 121 -12 128 -16 7 -4 131 -10 277 -14 169 -3 273 -10 287
-17 22 -12 51 -102 38 -122 -3 -5 -19 -10 -36 -10 -16 0 -29 -4 -29 -8 0 -5
-14 -9 -30 -10 -17 0 -46 -6 -65 -12 -24 -8 -44 -8 -67 -1 -18 5 -60 17 -93
26 -33 9 -98 30 -145 47 -92 33 -105 35 -134 23 -15 -6 -17 -5 -11 5 6 10 4
12 -11 6 -10 -4 -31 -10 -47 -13 -15 -3 -30 -10 -33 -14 -3 -5 -13 -9 -23 -9
-9 0 -36 -16 -59 -36 l-42 -36 0 -126 c0 -70 -5 -145 -10 -167 -5 -22 -11 -60
-15 -84 -7 -46 -50 -147 -69 -159 -6 -3 -33 -15 -61 -25 -42 -15 -80 -18 -230
-18 -99 0 -205 5 -235 11 -30 6 -78 15 -107 20 -28 5 -72 18 -97 30 -26 11
-52 18 -58 14 -7 -4 -8 -3 -4 4 4 7 4 12 -1 12 -15 0 -60 45 -97 98 -47 68
-78 133 -118 257 -41 122 -43 126 -92 159 -70 47 -101 33 -145 -66 -17 -36
-41 -78 -54 -94 -44 -52 -115 -147 -198 -261 -69 -95 -84 -111 -107 -111 -78
2 -82 -3 -88 -112 -3 -49 4 -93 27 -180 28 -109 84 -299 113 -385 37 -110 78
-255 111 -395 74 -315 94 -385 112 -400 10 -8 18 -19 19 -25 1 -22 23 -61 48
-84 14 -14 26 -21 26 -16 0 4 10 -4 21 -19 12 -15 23 -25 26 -23 2 3 16 -6 30
-19 14 -13 35 -24 47 -24 12 0 75 -12 141 -26 66 -14 134 -24 150 -24 58 3 66
0 99 -53 23 -36 41 -86 60 -164 l27 -113 -1 -430 c0 -425 -1 -431 -26 -547
-32 -143 -32 -153 -6 -228 12 -33 26 -78 32 -100 7 -25 31 -62 63 -98 l52 -57
156 103 c213 141 274 187 398 296 58 52 174 151 256 220 206 173 284 259 692
776 l111 140 36 121 c48 161 49 250 6 379 -42 124 -41 138 28 242 157 237 321
491 335 518 8 17 67 68 136 120 99 73 128 101 156 148 19 32 35 62 35 66 0 5
7 14 15 21 8 7 12 16 9 21 -3 5 -1 9 5 9 9 0 27 40 22 49 -2 2 2 7 7 10 5 3
31 58 56 123 42 106 46 124 46 200 0 54 -9 115 -24 177 l-24 93 35 92 c43 111
114 359 148 519 24 112 25 133 25 454 l0 336 -39 71 c-21 39 -53 115 -71 169
-56 170 -211 426 -327 539 -48 48 -95 81 -163 116 -154 79 -241 105 -460 137
-82 12 -117 23 -166 50 -60 34 -62 36 -98 123 l-38 89 -91 37 c-89 35 -97 36
-217 36 l-125 -1 -27 -39z"/>
<path d="M2644 9127 c3 -10 6 -35 7 -55 0 -30 2 -33 9 -17 9 23 3 65 -13 80
-7 7 -8 4 -3 -8z"/>
<path d="M3850 4898 c0 -9 -12 -25 -27 -37 -28 -19 -28 -20 -8 -35 11 -9 31
-19 45 -22 14 -4 53 -24 87 -45 34 -22 66 -39 69 -39 4 0 17 -8 28 -17 34 -29
-19 31 -111 127 -50 50 -83 78 -83 68z"/>
<path d="M6175 2980 c-3 -6 1 -7 9 -4 18 7 21 14 7 14 -6 0 -13 -4 -16 -10z"/>
<path d="M5776 2931 c-3 -5 2 -15 12 -22 15 -12 16 -12 5 2 -7 9 -10 19 -6 22
3 4 4 7 0 7 -3 0 -8 -4 -11 -9z"/>
<path d="M6436 2792 c-3 -5 1 -9 9 -9 8 0 12 4 9 9 -3 4 -7 8 -9 8 -2 0 -6 -4
-9 -8z"/>
<path d="M6496 2761 c3 -4 9 -7 12 -7 4 -1 18 -5 31 -9 23 -8 23 -9 6 -22 -11
-7 -14 -13 -8 -13 6 0 16 7 23 16 11 13 10 16 -8 21 -12 3 -20 8 -18 12 3 4
-6 7 -19 7 -14 0 -22 -2 -19 -5z"/>
<path d="M6889 2663 c-13 -16 -12 -17 4 -4 9 7 17 15 17 17 0 8 -8 3 -21 -13z"/>
<path d="M6653 2643 c0 -9 4 -10 14 -2 7 6 13 12 13 14 0 1 -6 2 -13 2 -8 0
-14 -6 -14 -14z"/>
<path d="M6685 2641 c-3 -5 -2 -12 3 -15 5 -3 9 1 9 9 0 17 -3 19 -12 6z"/>
<path d="M6166 2042 c-3 -5 1 -9 9 -9 8 0 12 4 9 9 -3 4 -7 8 -9 8 -2 0 -6 -4
-9 -8z"/>
<path d="M6059 1923 c-13 -16 -12 -17 4 -4 16 13 21 21 13 21 -2 0 -10 -8 -17
-17z"/>
<path d="M1720 9671 c0 -25 6 -27 13 -6 4 8 2 17 -3 20 -6 4 -10 -3 -10 -14z"/>
<path d="M1741 9484 c0 -11 3 -14 6 -6 3 7 2 16 -1 19 -3 4 -6 -2 -5 -13z"/>
<path d="M1769 9178 c4 -28 6 -29 9 -9 2 13 0 27 -5 32 -6 6 -7 -3 -4 -23z"/>
<path d="M1772 9115 c0 -16 2 -22 5 -12 2 9 2 23 0 30 -3 6 -5 -1 -5 -18z"/>
<path d="M1951 9084 c0 -11 3 -14 6 -6 3 7 2 16 -1 19 -3 4 -6 -2 -5 -13z"/>
<path d="M1207 9253 c-11 -10 -8 -61 3 -68 6 -4 10 10 10 34 0 42 -2 46 -13
34z"/>
<path d="M753 8598 c-27 -41 -28 -48 -28 -173 0 -152 23 -253 84 -368 53 -102
151 -176 186 -141 8 9 15 21 15 29 0 18 46 28 71 14 11 -6 23 -8 26 -5 4 3 1
43 -5 88 -6 46 -14 108 -17 138 -5 51 -25 126 -45 175 -4 11 -14 35 -21 53
-17 46 -86 152 -99 152 -5 0 -10 -11 -10 -25 0 -29 -2 -30 -40 -10 -24 13 -30
22 -30 49 0 50 -9 66 -36 66 -17 0 -32 -12 -51 -42z"/>
<path d="M1649 8163 c-21 -5 -49 -87 -49 -141 0 -59 27 -165 59 -230 30 -62
121 -159 158 -169 40 -9 58 8 55 50 -3 29 2 42 22 59 39 35 39 78 1 78 -24 0
-25 2 -19 39 4 26 1 49 -9 69 -12 25 -12 32 -1 44 19 20 -35 125 -84 160 -61
45 -88 53 -133 41z"/>
<path d="M100 13651 c0 -5 7 -14 15 -21 8 -7 15 -18 15 -25 0 -17 29 -74 57
-111 13 -17 23 -35 23 -40 0 -5 22 -54 49 -109 55 -110 111 -233 111 -241 0
-3 24 -31 53 -61 67 -71 146 -123 188 -123 l32 0 -6 63 c-8 75 -24 122 -84
247 -46 96 -151 263 -194 311 -13 14 -40 46 -59 72 l-35 46 -82 1 c-46 0 -83
-4 -83 -9z"/>
<path d="M2107 13623 c48 -66 104 -128 126 -140 15 -9 47 -11 102 -7 99 7 131
-5 201 -76 l50 -51 26 21 c14 11 38 20 52 20 45 0 120 -79 179 -190 10 -19 47
-62 80 -95 124 -120 142 -159 142 -298 0 -93 -1 -100 -25 -119 -16 -13 -33
-18 -50 -15 -14 3 -110 47 -215 97 -104 50 -199 95 -210 100 -11 5 -116 41
-234 80 -176 59 -374 140 -463 190 -25 14 -28 13 -28 -10 0 -19 24 -69 88
-181 23 -40 64 -95 107 -143 6 -6 19 -24 29 -41 45 -72 65 -85 134 -85 35 0
73 -5 85 -12 94 -49 194 -280 166 -382 -6 -21 -9 -91 -7 -155 3 -103 6 -122
31 -171 29 -57 79 -100 117 -100 17 0 20 7 20 38 0 42 -11 60 -52 85 -37 23
-36 55 3 110 l31 44 -36 109 c-20 60 -40 118 -45 129 -34 78 -34 160 0 191 24
22 90 28 169 14 36 -6 88 -15 117 -19 86 -15 180 -67 223 -125 102 -139 109
-166 164 -626 7 -58 16 -114 21 -125 5 -11 9 -90 10 -177 0 -150 -1 -157 -23
-181 -13 -14 -37 -27 -53 -31 -37 -7 -37 -26 0 -79 45 -65 82 -99 161 -151
147 -97 209 -98 239 -7 26 79 8 333 -39 566 -53 258 -71 376 -77 491 l-6 130
28 22 c31 25 64 27 115 8 50 -19 232 -101 317 -142 39 -18 76 -34 82 -34 6 0
11 -4 11 -10 0 -5 4 -10 8 -10 8 0 110 -54 251 -132 31 -17 89 -49 129 -70 40
-20 83 -44 95 -53 26 -18 57 -20 57 -3 0 12 -143 230 -167 253 -7 8 -13 17
-13 22 0 4 -12 21 -26 37 -19 21 -56 40 -132 66 -59 21 -114 40 -122 43 -8 3
-46 17 -85 30 -88 31 -138 53 -411 188 -248 122 -248 122 -356 285 -101 153
-130 211 -135 274 -4 45 -2 59 15 78 41 47 120 13 182 -78 8 -13 35 -43 58
-67 43 -44 45 -45 90 -38 26 4 51 11 57 16 5 5 19 9 32 9 35 0 38 22 14 118
-37 149 -47 258 -31 343 7 41 20 82 28 92 21 24 61 21 105 -8 20 -14 37 -22
37 -18 0 13 -26 82 -33 89 -4 4 -7 29 -7 56 l0 48 -168 0 -168 0 4 -133 c4
-119 2 -138 -17 -179 -11 -25 -36 -59 -56 -77 -30 -26 -44 -31 -88 -31 -68 0
-203 51 -235 89 -30 36 -49 101 -55 181 -3 47 -9 100 -13 118 l-6 32 -144 0
c-79 0 -144 -4 -144 -8 0 -5 -9 -18 -20 -30 -18 -19 -32 -22 -91 -22 -57 0
-80 5 -129 30 -49 25 -71 30 -130 30 l-71 0 28 -37z m1354 -624 c13 -25 0 -43
-24 -33 -21 8 -23 54 -2 54 8 0 19 -9 26 -21z"/>
<path d="M2865 13638 c3 -13 11 -61 17 -108 19 -161 25 -170 136 -208 86 -30
124 -29 164 7 31 28 32 29 36 144 2 64 1 132 -2 151 l-7 36 -176 0 -175 0 7
-22z"/>
<path d="M3945 13476 c-52 -80 -85 -106 -138 -106 -35 0 -96 25 -109 44 -16
24 -7 -11 13 -48 23 -43 9 -39 -35 12 -51 59 -56 62 -90 62 -44 0 -56 -28 -56
-132 0 -85 17 -206 32 -222 4 -6 8 -19 8 -30 1 -29 37 -106 49 -106 6 0 17 15
25 34 7 18 22 42 33 52 26 26 44 85 52 167 7 78 26 100 37 42 8 -47 0 -122
-20 -166 -8 -19 -25 -61 -37 -94 -13 -33 -27 -64 -31 -69 -17 -21 -6 -54 28
-87 20 -18 42 -46 50 -61 30 -57 75 -65 215 -42 30 5 41 2 63 -21 14 -14 26
-30 26 -34 0 -5 24 -34 54 -65 86 -89 111 -73 82 53 -10 42 -27 96 -39 121
-20 41 -25 45 -57 45 -32 0 -35 -2 -32 -27 4 -44 -23 -51 -99 -24 -98 34 -101
37 -161 141 -29 50 -23 113 15 166 70 99 101 137 182 220 92 93 99 111 69 172
-20 40 -54 77 -70 77 -6 0 -33 -33 -59 -74z"/>
<path d="M27 8503 l-27 -4 0 -242 0 -241 27 -39 c27 -39 87 -77 122 -77 59 0
107 110 97 225 -8 94 -17 145 -27 145 -5 0 -9 10 -9 23 0 47 -87 187 -128 206
-13 6 -24 10 -25 10 -1 -1 -14 -4 -30 -6z m130 -257 c5 -38 3 -46 -11 -46 -10
0 -23 15 -32 36 -14 33 -14 38 2 55 23 26 35 12 41 -45z"/>
<path d="M13625 10 c-18 -8 -17 -9 8 -9 15 -1 27 4 27 9 0 12 -8 12 -35 0z"/>
</g>
</svg>
